<svg width="24" height="24" viewBox="0 0 24 24" fill="none" xmlns="http://www.w3.org/2000/svg">
<path d="M13.0206 3.62291C12.8392 3.24224 12.4558 3 12.0348 3C11.6138 3 11.2339 3.24224 11.0491 3.62291L8.84816 8.20126L3.93295 8.93491C3.52221 8.9972 3.17992 9.28788 3.05327 9.68585C2.92663 10.0838 3.02931 10.5233 3.32368 10.8175L6.89029 14.3853L6.04827 19.4274C5.97981 19.8427 6.15095 20.2649 6.48982 20.5106C6.82868 20.7563 7.27707 20.7874 7.64674 20.5902L12.0383 18.2197L16.4298 20.5902C16.7994 20.7874 17.2478 20.7597 17.5867 20.5106C17.9256 20.2614 18.0967 19.8427 18.0282 19.4274L17.1828 14.3853L20.7494 10.8175C21.0438 10.5233 21.1499 10.0838 21.0198 9.68585C20.8897 9.28788 20.5509 8.9972 20.1401 8.93491L15.2215 8.20126L13.0206 3.62291Z" fill="#7839CD"/>
</svg>
