<svg width="44" height="49" viewBox="0 0 44 49" fill="none" xmlns="http://www.w3.org/2000/svg">
<path d="M23.8335 15.3125C23.8335 15.854 23.6403 16.3733 23.2965 16.7562C22.9527 17.139 22.4864 17.3541 22.0002 17.3541C21.5139 17.3541 21.0476 17.139 20.7038 16.7562C20.36 16.3733 20.1668 15.854 20.1668 15.3125C20.1668 14.771 20.36 14.2517 20.7038 13.8688C21.0476 13.4859 21.5139 13.2708 22.0002 13.2708C22.4864 13.2708 22.9527 13.4859 23.2965 13.8688C23.6403 14.2517 23.8335 14.771 23.8335 15.3125ZM18.3335 22.9687C18.3335 22.5626 18.4784 22.1731 18.7362 21.886C18.9941 21.5988 19.3438 21.4375 19.7085 21.4375H22.4585C22.8232 21.4375 23.1729 21.5988 23.4308 21.886C23.6886 22.1731 23.8335 22.5626 23.8335 22.9687V31.6458H25.2085C25.5732 31.6458 25.9229 31.8071 26.1808 32.0943C26.4386 32.3815 26.5835 32.771 26.5835 33.1771C26.5835 33.5832 26.4386 33.9727 26.1808 34.2598C25.9229 34.547 25.5732 34.7083 25.2085 34.7083H19.7085C19.3438 34.7083 18.9941 34.547 18.7362 34.2598C18.4784 33.9727 18.3335 33.5832 18.3335 33.1771C18.3335 32.771 18.4784 32.3815 18.7362 32.0943C18.9941 31.8071 19.3438 31.6458 19.7085 31.6458H21.0835V24.5H19.7085C19.3438 24.5 18.9941 24.3387 18.7362 24.0515C18.4784 23.7643 18.3335 23.3748 18.3335 22.9687Z" fill="#0783C9"/>
<path d="M22.0002 2.04169C33.1377 2.04169 42.1668 12.0969 42.1668 24.5C42.1668 36.9031 33.1377 46.9584 22.0002 46.9584C10.8627 46.9584 1.8335 36.9031 1.8335 24.5C1.8335 12.0969 10.8627 2.04169 22.0002 2.04169ZM4.5835 24.5C4.5835 29.6441 6.41846 34.5775 9.68472 38.2149C12.951 41.8524 17.381 43.8959 22.0002 43.8959C26.6193 43.8959 31.0493 41.8524 34.3156 38.2149C37.5819 34.5775 39.4168 29.6441 39.4168 24.5C39.4168 19.3559 37.5819 14.4225 34.3156 10.7851C31.0493 7.14767 26.6193 5.10419 22.0002 5.10419C17.381 5.10419 12.951 7.14767 9.68472 10.7851C6.41846 14.4225 4.5835 19.3559 4.5835 24.5Z" fill="#0783C9"/>
</svg>
