<svg width="52" height="57" viewBox="0 0 52 57" fill="none" xmlns="http://www.w3.org/2000/svg">
<rect width="52" height="57" fill="white"/>
<path d="M26.0002 8.90625C21.5128 8.90625 17.8752 12.8937 17.8752 17.8125C17.8752 22.7313 21.5128 26.7188 26.0002 26.7188C30.4875 26.7188 34.1252 22.7313 34.1252 17.8125C34.1252 12.8937 30.4875 8.90625 26.0002 8.90625Z" fill="#121313"/>
<path d="M17.3335 31.4688C12.8462 31.4688 9.2085 35.4562 9.2085 40.375V43.1972C9.2085 44.9861 10.3912 46.5114 12.0019 46.7997C21.2727 48.4588 30.7276 48.4588 39.9984 46.7997C41.6091 46.5114 42.7918 44.9861 42.7918 43.1972V40.375C42.7918 35.4562 39.1541 31.4688 34.6668 31.4688H33.9283C33.5285 31.4688 33.1313 31.538 32.7513 31.674L30.8761 32.3453C27.7078 33.4793 24.2925 33.4793 21.1243 32.3453L19.249 31.674C18.869 31.538 18.4718 31.4688 18.072 31.4688H17.3335Z" fill="#121313"/>
</svg>
