<svg width="44" height="49" viewBox="0 0 44 49" fill="none" xmlns="http://www.w3.org/2000/svg">
<path d="M23.8333 15.3125C23.8333 15.854 23.6401 16.3733 23.2963 16.7562C22.9525 17.139 22.4861 17.3541 21.9999 17.3541C21.5137 17.3541 21.0474 17.139 20.7036 16.7562C20.3597 16.3733 20.1666 15.854 20.1666 15.3125C20.1666 14.771 20.3597 14.2517 20.7036 13.8688C21.0474 13.4859 21.5137 13.2708 21.9999 13.2708C22.4861 13.2708 22.9525 13.4859 23.2963 13.8688C23.6401 14.2517 23.8333 14.771 23.8333 15.3125ZM18.3333 22.9687C18.3333 22.5626 18.4781 22.1731 18.736 21.886C18.9938 21.5988 19.3436 21.4375 19.7083 21.4375H22.4583C22.8229 21.4375 23.1727 21.5988 23.4305 21.886C23.6884 22.1731 23.8333 22.5626 23.8333 22.9687V31.6458H25.2083C25.5729 31.6458 25.9227 31.8071 26.1805 32.0943C26.4384 32.3815 26.5833 32.771 26.5833 33.1771C26.5833 33.5832 26.4384 33.9727 26.1805 34.2598C25.9227 34.547 25.5729 34.7083 25.2083 34.7083H19.7083C19.3436 34.7083 18.9938 34.547 18.736 34.2598C18.4781 33.9727 18.3333 33.5832 18.3333 33.1771C18.3333 32.771 18.4781 32.3815 18.736 32.0943C18.9938 31.8071 19.3436 31.6458 19.7083 31.6458H21.0833V24.5H19.7083C19.3436 24.5 18.9938 24.3387 18.736 24.0515C18.4781 23.7643 18.3333 23.3748 18.3333 22.9687Z" fill="#0783C9"/>
<path d="M21.9999 2.04169C33.1374 2.04169 42.1666 12.0969 42.1666 24.5C42.1666 36.9031 33.1374 46.9584 21.9999 46.9584C10.8624 46.9584 1.83325 36.9031 1.83325 24.5C1.83325 12.0969 10.8624 2.04169 21.9999 2.04169ZM4.58325 24.5C4.58325 29.6441 6.41822 34.5775 9.68447 38.2149C12.9507 41.8524 17.3807 43.8959 21.9999 43.8959C26.6191 43.8959 31.0491 41.8524 34.3154 38.2149C37.5816 34.5775 39.4166 29.6441 39.4166 24.5C39.4166 19.3559 37.5816 14.4225 34.3154 10.7851C31.0491 7.14767 26.6191 5.10419 21.9999 5.10419C17.3807 5.10419 12.9507 7.14767 9.68447 10.7851C6.41822 14.4225 4.58325 19.3559 4.58325 24.5Z" fill="#0783C9"/>
</svg>
