<svg width="42" height="44" viewBox="0 0 42 44" fill="none" xmlns="http://www.w3.org/2000/svg">
<path d="M11.2505 4.42388C11.7272 3.85174 11.6708 2.98314 11.1247 2.48381C10.5785 1.98448 9.74943 2.0435 9.27279 2.61564L7.01213 5.32928C5.72979 6.86856 5.00489 8.83117 4.96423 10.8738L4.86504 15.8562C4.84992 16.6154 5.42517 17.2437 6.14988 17.2595C6.8746 17.2754 7.47435 16.6727 7.48947 15.9135L7.58866 10.9311C7.61648 9.53355 8.11246 8.19071 8.98985 7.13752L11.2505 4.42388Z" fill="#0783C9"/>
<path fill-rule="evenodd" clip-rule="evenodd" d="M10.9149 14.1181C11.1579 10.0468 14.3807 6.87511 18.2746 6.87511H19.2501V5.50011C19.2501 4.48759 20.0336 3.66678 21.0001 3.66678C21.9666 3.66678 22.7501 4.48759 22.7501 5.50011V6.87511H23.7256C27.6194 6.87511 30.8422 10.0468 31.0853 14.1181L31.472 20.5961C31.6195 23.066 32.411 25.4461 33.7604 27.4773C34.9796 29.3126 33.8942 31.8473 31.7751 32.1137L25.8126 32.8633V34.8334C25.8126 37.6179 23.658 39.8751 21.0001 39.8751C18.3422 39.8751 16.1876 37.6179 16.1876 34.8334V32.8633L10.2251 32.1137C8.10599 31.8473 7.0206 29.3126 8.2398 27.4773C9.58915 25.4461 10.3807 23.066 10.5281 20.5961L10.9149 14.1181ZM18.8126 34.8334C18.8126 36.0991 19.792 37.1251 21.0001 37.1251C22.2082 37.1251 23.1876 36.0991 23.1876 34.8334V33.4584H18.8126V34.8334Z" fill="#0783C9"/>
<path d="M30.8755 2.48381C30.3294 2.98314 30.273 3.85174 30.7497 4.42388L33.0103 7.13752C33.8877 8.19072 34.3837 9.53355 34.4115 10.9311L34.5107 15.9135C34.5258 16.6727 35.1256 17.2754 35.8503 17.2595C36.575 17.2437 37.1503 16.6154 37.1351 15.8562L37.036 10.8738C36.9953 8.83117 36.2704 6.86857 34.9881 5.32929L32.7274 2.61564C32.2508 2.0435 31.4216 1.98448 30.8755 2.48381Z" fill="#0783C9"/>
</svg>
