<svg width="52" height="57" viewBox="0 0 52 57" fill="none" xmlns="http://www.w3.org/2000/svg">
<rect width="52" height="57" fill="white"/>
<path d="M25.9999 8.90625C21.5126 8.90625 17.8749 12.8937 17.8749 17.8125C17.8749 22.7313 21.5126 26.7188 25.9999 26.7188C30.4872 26.7188 34.1249 22.7313 34.1249 17.8125C34.1249 12.8937 30.4872 8.90625 25.9999 8.90625Z" fill="#121313"/>
<path d="M17.3333 31.4688C12.8459 31.4688 9.20825 35.4562 9.20825 40.375V43.1972C9.20825 44.9861 10.391 46.5114 12.0017 46.7997C21.2725 48.4588 30.7274 48.4588 39.9982 46.7997C41.6088 46.5114 42.7916 44.9861 42.7916 43.1972V40.375C42.7916 35.4562 39.1539 31.4688 34.6666 31.4688H33.928C33.5283 31.4688 33.1311 31.538 32.7511 31.674L30.8758 32.3453C27.7075 33.4793 24.2923 33.4793 21.124 32.3453L19.2487 31.674C18.8688 31.538 18.4715 31.4688 18.0718 31.4688H17.3333Z" fill="#121313"/>
</svg>
