<svg width="44" height="49" viewBox="0 0 44 49" fill="none" xmlns="http://www.w3.org/2000/svg">
<path d="M23.8333 15.3125C23.8333 15.854 23.6402 16.3733 23.2964 16.7562C22.9526 17.139 22.4862 17.3541 22 17.3541C21.5138 17.3541 21.0475 17.139 20.7036 16.7562C20.3598 16.3733 20.1667 15.854 20.1667 15.3125C20.1667 14.771 20.3598 14.2517 20.7036 13.8688C21.0475 13.4859 21.5138 13.2708 22 13.2708C22.4862 13.2708 22.9526 13.4859 23.2964 13.8688C23.6402 14.2517 23.8333 14.771 23.8333 15.3125ZM18.3333 22.9687C18.3333 22.5626 18.4782 22.1731 18.7361 21.886C18.9939 21.5988 19.3437 21.4375 19.7083 21.4375H22.4583C22.823 21.4375 23.1728 21.5988 23.4306 21.886C23.6885 22.1731 23.8333 22.5626 23.8333 22.9687V31.6458H25.2083C25.573 31.6458 25.9228 31.8071 26.1806 32.0943C26.4385 32.3815 26.5833 32.771 26.5833 33.1771C26.5833 33.5832 26.4385 33.9727 26.1806 34.2598C25.9228 34.547 25.573 34.7083 25.2083 34.7083H19.7083C19.3437 34.7083 18.9939 34.547 18.7361 34.2598C18.4782 33.9727 18.3333 33.5832 18.3333 33.1771C18.3333 32.771 18.4782 32.3815 18.7361 32.0943C18.9939 31.8071 19.3437 31.6458 19.7083 31.6458H21.0833V24.5H19.7083C19.3437 24.5 18.9939 24.3387 18.7361 24.0515C18.4782 23.7643 18.3333 23.3748 18.3333 22.9687Z" fill="#0783C9"/>
<path d="M22 2.04169C33.1375 2.04169 42.1667 12.0969 42.1667 24.5C42.1667 36.9031 33.1375 46.9584 22 46.9584C10.8625 46.9584 1.83334 36.9031 1.83334 24.5C1.83334 12.0969 10.8625 2.04169 22 2.04169ZM4.58334 24.5C4.58334 29.6441 6.41831 34.5775 9.68457 38.2149C12.9508 41.8524 17.3808 43.8959 22 43.8959C26.6192 43.8959 31.0492 41.8524 34.3155 38.2149C37.5817 34.5775 39.4167 29.6441 39.4167 24.5C39.4167 19.3559 37.5817 14.4225 34.3155 10.7851C31.0492 7.14767 26.6192 5.10419 22 5.10419C17.3808 5.10419 12.9508 7.14767 9.68457 10.7851C6.41831 14.4225 4.58334 19.3559 4.58334 24.5Z" fill="#0783C9"/>
</svg>
